<svg xmlns="http://www.w3.org/2000/svg" xmlns:xlink="http://www.w3.org/1999/xlink" xmlns:inkscape="http://www.inkscape.org/namespaces/inkscape" version="1.1" width="208.572" height="154.13" viewBox="0 0 208.572 154.13">
<defs>
<path id="font_1_2" d="M.5159912 .31925965C.5159912 .42918397 .5029907 .50813296 .45700074 .5780945 .42599488 .62405398 .3639984 .6640625 .28399659 .6640625 .051986696 .6640625 .051986696 .39120484 .051986696 .31925965 .051986696 .2472992 .051986696-.01953125 .28399659-.01953125 .5159912-.01953125 .5159912 .2472992 .5159912 .31925965M.28399659 .008468628C.23799134 .008468628 .1769867 .035446168 .15699768 .117385867 .14299011 .17634583 .14299011 .25830079 .14299011 .33224488 .14299011 .40519715 .14299011 .4811554 .1579895 .53611758 .1789856 .6150665 .24299622 .63604739 .28399659 .63604739 .33799745 .63604739 .3899994 .6030731 .4079895 .545105 .42399598 .4911499 .4249878 .41918946 .4249878 .33224488 .4249878 .25830079 .4249878 .18434143 .4119873 .12138367 .3919983 .030441285 .32398988 .008468628 .28399659 .008468628Z"/>
<path id="font_2_1" d="M.61099246 .25C.61099246 .3841095 .5019989 .49316407 .36799623 .49316407 .23399353 .49316407 .125 .3841095 .125 .25 .125 .115875247 .23399353 .0068359377 .36799623 .0068359377 .5019989 .0068359377 .61099246 .115875247 .61099246 .25M.36799623 .06283569C.2649994 .06283569 .18099976 .14689636 .18099976 .25 .18099976 .35308839 .2649994 .43714906 .36799623 .43714906 .47099305 .43714906 .5549927 .35308839 .5549927 .25 .5549927 .14689636 .47099305 .06283569 .36799623 .06283569Z"/>
<path id="font_1_1" d="M.46299745 .2263794H.7689972C.7819977 .2263794 .80599978 .2263794 .80599978 .25038148 .80599978 .27539063 .7829895 .27539063 .7689972 .27539063H.46299745V.5821533C.46299745 .59513857 .46299745 .6191406 .43899537 .6191406 .4139862 .6191406 .4139862 .5961304 .4139862 .5821533V.27539063H.10699463C.09399414 .27539063 .069992069 .27539063 .069992069 .25138856 .069992069 .2263794 .09298706 .2263794 .10699463 .2263794H.4139862V-.08114624C.4139862-.09416199 .4139862-.11816406 .43798829-.11816406 .46299745-.11816406 .46299745-.09516907 .46299745-.08114624V.2263794Z"/>
<path id="font_1_3" d="M.41799928 .29803468C.41799928 .05064392 .29499818 .012466431 .23498535 .012466431 .21299744 .012466431 .1599884 .014465332 .1329956 .045639039 .17399597 .04963684 .1769867 .08363342 .1769867 .09263611 .1769867 .11764526 .1599884 .13964844 .12998963 .13964844 .099990848 .13964844 .08198547 .119644168 .08198547 .09063721 .08198547 .022521973 .13899231-.01953125 .23599243-.01953125 .3789978-.01953125 .5139923 .11564636 .5139923 .32904054 .5139923 .5770569 .4039917 .6640625 .2869873 .6640625 .2539978 .6640625 .18499756 .6590576 .12799073 .60305789 .09399414 .5700531 .053985597 .53105166 .053985597 .4410553 .053985597 .31404115 .15499878 .22003174 .27198792 .22003174 .35198976 .22003174 .394989 .27304078 .41799928 .31803895V.29803468M.2769928 .24804688C.23799134 .24804688 .20098877 .26104737 .17298889 .30703736 .1499939 .34403993 .1499939 .38604737 .1499939 .4410553 .1499939 .49905396 .1499939 .53904727 .1789856 .5790558 .20298767 .61405947 .23599243 .63505557 .28799439 .63505557 .33898927 .63505557 .36898805 .60305789 .3849945 .5770569 .4119873 .53504946 .4149933 .4650421 .4149933 .4300537 .4149933 .30004884 .33999635 .24804688 .2769928 .24804688Z"/>
<path id="font_3_1" d="M.31599427-.008773804C.32699586-.009765625 .33898927-.009765625 .34999085-.009765625 .5299988-.009765625 .69499209 .13726807 .69499209 .29534913 .69499209 .3843994 .6419983 .44140626 .56399539 .44140626 .42599488 .44140626 .35299684 .26533509 .32499696 .19029236 .31199647 .15327454 .2899933 .083236698 .28399659 .06422424 .17399597 .07923889 .10398865 .12927246 .10398865 .2033081 .10398865 .20429993 .10998535 .31636048 .19099427 .4064026 .19799805 .4133911 .19898987 .41540528 .19898987 .41940309 .19898987 .43139649 .18598938 .43139649 .18299866 .43139649 .17399597 .43139649 .16999817 .43139649 .15098572 .4093933 .09498596 .3403778 .068984989 .23632813 .068984989 .19329834 .068984989 .10424805 .13398743 .02722168 .2630005-.00077819827 .21299744-.15582276 .20698548-.17481995 .20698548-.18382263 .20698548-.21083069 .22999573-.21582031 .24099732-.21582031 .2519989-.21582031 .27198792-.20883179 .27999879-.1938324 .2869873-.17881775 .29599-.12780762 .31599427-.008773804M.32899476 .05923462C.34899903 .17428589 .35699464 .21931458 .40499879 .28434754 .44999696 .3453827 .5029907 .37339784 .5529938 .37339784 .621994 .37339784 .6589966 .32737733 .6589966 .27534486 .6589966 .17428589 .5329895 .05822754 .36099244 .05822754 .35198976 .05822754 .33799745 .05822754 .32899476 .05923462Z"/>
<path id="font_4_1" d="M.397995 .63591006C.397995 .6660156 .394989 .6660156 .3619995 .6660156 .29100038 .6016083 .17999268 .6016083 .1599884 .6016083H.14299011V.5576172H.1599884C.18299866 .5576172 .24798584 .5606079 .30599977 .58561709V.08596802C.30599977 .054977418 .30599977 .04399109 .19999695 .04399109H.1499939V0C.20498657 .0039978029 .2939911 .0039978029 .35198976 .0039978029 .4099884 .0039978029 .49899293 .0039978029 .55400088 0V.04399109H.5039978C.397995 .04399109 .397995 .054977418 .397995 .08596802V.63591006Z"/>
<path id="font_4_2" d="M.58898928 .19296265H.5469971C.5439911 .17396546 .5339966 .11198425 .5179901 .101989749 .5099945 .09599304 .42599488 .09599304 .41099549 .09599304H.21499634C.2809906 .14497376 .35499574 .20095825 .4149933 .24093628 .5049896 .30291749 .58898928 .36090089 .58898928 .46687318 .58898928 .59495547 .46798707 .6660156 .32499696 .6660156 .18998719 .6660156 .09098816 .58795168 .09098816 .48986817 .09098816 .4378662 .1349945 .42886354 .14898682 .42886354 .17599488 .42886354 .20799256 .4468689 .20799256 .48786927 .20799256 .52386477 .18199158 .543869 .15098572 .546875 .1789856 .59194949 .23699951 .6220093 .3039856 .6220093 .40098573 .6220093 .48199464 .5639038 .48199464 .4658661 .48199464 .3818817 .42399598 .31791688 .34700013 .2529297L.102996829 .04598999C.09298706 .036987306 .09199524 .036987306 .09098816 .02999878V0H.55599978L.58898928 .19296265Z"/>
<path id="font_5_1" d="M.74398806 .2263794C.7599945 .2263794 .7839966 .2263794 .7839966 .25038148 .7839966 .27539063 .7609863 .27539063 .74398806 .27539063H.147995C.13198853 .27539063 .10798645 .27539063 .10798645 .25138856 .10798645 .2263794 .1309967 .2263794 .147995 .2263794H.74398806Z"/>
<clipPath id="clip_6">
<path transform="matrix(1,0,0,-1,37.657,99.75201)" d="M0 0 54.76099 14.67337C50.87076 29.19366 41.36443 41.58156 28.3459 49.09819Z"/>
</clipPath>
<g id="pattern_tile_7">
<path transform="matrix(1,0,0,-1,0,154.13)" d="M.49814 0C.49814 .2751 .2751 .49814 0 .49814-.2751 .49814-.49814 .2751-.49814 0-.49814-.2751-.2751-.49814 0-.49814 .2751-.49814 .49814-.2751 .49814 0ZM0 0" fill="#ffcc99"/>
</g>
<pattern id="pattern_7" patternUnits="userSpaceOnUse" patternContentUnits="userSpaceOnUse" x="0" y="0" width="2.98883" height="2.98883">
<g transform="matrix(1,0,0,-1,-0,154.13)">
<use x="0" y="0" xlink:href="#pattern_tile_7"/>
</g>
</pattern>
<clipPath id="clip_8">
<path transform="matrix(1,0,0,-1,37.657,99.75201)" d="M0 0 54.76099-14.67337C50.87076-29.19366 41.36443-41.58156 28.3459-49.09819Z"/>
</clipPath>
<g id="pattern_tile_9">
<path transform="matrix(1,0,0,-1,0,154.13)" d="M.49814 0C.49814 .2751 .2751 .49814 0 .49814-.2751 .49814-.49814 .2751-.49814 0-.49814-.2751-.2751-.49814 0-.49814 .2751-.49814 .49814-.2751 .49814 0ZM0 0" fill="#ffcc99"/>
</g>
<pattern id="pattern_9" patternUnits="userSpaceOnUse" patternContentUnits="userSpaceOnUse" x="0" y="0" width="2.98883" height="2.98883">
<g transform="matrix(1,0,0,-1,-0,154.13)">
<use x="0" y="0" xlink:href="#pattern_tile_9"/>
</g>
</pattern>
<clipPath id="clip_10">
<path transform="matrix(1,0,0,-1,37.657,99.75201)" d="M0 0 65.71461-17.60771C68.804-6.07547 68.804 6.07655 65.71461 17.60881Z"/>
</clipPath>
<g id="pattern_tile_11">
<path transform="matrix(1,0,0,-1,0,154.13)" stroke-width=".3985" stroke-linecap="butt" stroke-miterlimit="10" stroke-linejoin="miter" fill="none" stroke="#9999ff" d="M0 0 3.08846 3.08846"/>
</g>
<pattern id="pattern_11" patternUnits="userSpaceOnUse" patternContentUnits="userSpaceOnUse" x="0" y="0" width="2.98883" height="2.98883">
<clipPath id="clip_12">
<path d="M -.99628 -.99628 L 3.9851 -.99628 L 3.9851 3.9851 L -.99628 3.9851 Z"/>
</clipPath>
<g clip-path="url(#clip_12)">
<g transform="matrix(1,0,0,-1,-0,154.13)">
<use x="0" y="0" xlink:href="#pattern_tile_11"/>
<use x="0" y="-2.98883" xlink:href="#pattern_tile_11"/>
<use x="-2.98883" y="0" xlink:href="#pattern_tile_11"/>
<use x="-2.98883" y="-2.98883" xlink:href="#pattern_tile_11"/>
</g>
</g>
</pattern>
<path id="font_3_2" d="M.57099917 .66430667C.57199099 .66630557 .57499697 .67930606 .57499697 .68029788 .57499697 .68530276 .57099917 .6943054 .5589905 .6943054 .5389862 .6943054 .45599366 .6863098 .43099977 .6843109 .4229889 .68330386 .40899659 .682312 .40899659 .66130068 .40899659 .64730837 .4229889 .64730837 .43499757 .64730837 .48298646 .64730837 .48298646 .64030459 .48298646 .63230898 .48298646 .62532046 .48098756 .61932376 .47898866 .61032107L.42199708 .38238526C.40098573 .41540528 .36698915 .44140626 .31900025 .44140626 .19099427 .44140626 .06098938 .300354 .06098938 .15628052 .06098938 .059249879 .12599182-.009765625 .21199036-.009765625 .2659912-.009765625 .31399537 .021224976 .35398866 .0602417 .37298585 .00022888184 .43099977-.009765625 .45700074-.009765625 .49299623-.009765625 .5179901 .01222229 .5359955 .04324341 .55799868 .08226013 .57099917 .13928223 .57099917 .14328003 .57099917 .15628052 .55799868 .15628052 .5549927 .15628052 .54100039 .15628052 .5399933 .15228272 .5329895 .12527466 .5209961 .07725525 .5019989 .018234253 .45999146 .018234253 .43399049 .018234253 .4269867 .040237428 .4269867 .06724548 .4269867 .086257938 .42900086 .09526062 .43199159 .10826111L.57099917 .66430667M.35798646 .12527466C.35099793 .09725952 .32899476 .07725525 .30699159 .058242799 .2979889 .050247194 .2579956 .018234253 .21499634 .018234253 .17799378 .018234253 .14199829 .04423523 .14199829 .11526489 .14199829 .16828919 .17098999 .27833558 .19400025 .31835938 .23999024 .39839173 .29100038 .4133911 .31900025 .4133911 .3889923 .4133911 .4079895 .33737184 .4079895 .32635499 .4079895 .32235719 .4059906 .3153534 .40499879 .3123474L.35798646 .12527466Z"/>
<path id="font_4_3" d="M.32998658 .3310547C.42199708 .3310547 .48298646 .2737732 .48298646 .17437744 .48298646 .07237244 .41999818 .01852417 .33099366 .01852417 .31999208 .01852417 .20098877 .01852417 .1499939 .070373538 .19099427 .07637024 .20298767 .1073761 .20298767 .13137818 .20298767 .16838074 .1749878 .19238281 .14199829 .19238281 .10998535 .19238281 .07998657 .17137146 .07998657 .12937927 .07998657 .025512696 .19799805-.022460938 .33399964-.022460938 .49798585-.022460938 .59999087 .07637024 .59999087 .17337036 .59999087 .25567628 .5269928 .3260193 .41299439 .35205079 .5329895 .3909912 .5649872 .46684266 .5649872 .5228424 .5649872 .60491946 .46299745 .6660156 .33699037 .6660156 .21398926 .6660156 .114990238 .61395266 .114990238 .5238342 .114990238 .47683717 .15299988 .46484376 .17199707 .46484376 .20098877 .46484376 .22898865 .48583985 .22898865 .5218353 .22898865 .5448303 .21699524 .5728302 .18099976 .57884219 .22399903 .625 .31298829 .628006 .33399964 .628006 .40699769 .628006 .45899964 .5908661 .45899964 .5228424 .45899964 .46484376 .42099 .37402345 .31599427 .368042 .28799439 .3670349 .28399659 .3660431 .2579956 .365036 .24699402 .3640442 .23599243 .36305238 .23599243 .34805299 .23599243 .3310547 .24598694 .3310547 .2639923 .3310547H.32998658Z"/>
<clipPath id="clip_13">
<path transform="matrix(1,0,0,-1,37.657,99.75201)" d="M88.44188 43.08763V52.15877H97.51302V43.08763ZM97.51302 52.15877"/>
</clipPath>
<g id="pattern_tile_14">
<path transform="matrix(1,0,0,-1,0,154.13)" stroke-width=".3985" stroke-linecap="butt" stroke-miterlimit="10" stroke-linejoin="miter" fill="none" stroke="#9999ff" d="M0 0 3.08846 3.08846"/>
</g>
<pattern id="pattern_14" patternUnits="userSpaceOnUse" patternContentUnits="userSpaceOnUse" x="0" y="0" width="2.98883" height="2.98883">
<clipPath id="clip_15">
<path d="M -.99628 -.99628 L 3.9851 -.99628 L 3.9851 3.9851 L -.99628 3.9851 Z"/>
</clipPath>
<g clip-path="url(#clip_15)">
<g transform="matrix(1,0,0,-1,-0,154.13)">
<use x="0" y="0" xlink:href="#pattern_tile_14"/>
<use x="0" y="-2.98883" xlink:href="#pattern_tile_14"/>
<use x="-2.98883" y="0" xlink:href="#pattern_tile_14"/>
<use x="-2.98883" y="-2.98883" xlink:href="#pattern_tile_14"/>
</g>
</g>
</pattern>
<path id="font_1_4" d="M.74398806 .677124C.74398806 .6941223 .74398806 .703125 .7299957 .703125 .7259979 .703125 .72099307 .703125 .71299746 .69111636L.6599884 .6151428C.6179962 .65711978 .548996 .703125 .45298768 .703125 .24299622 .703125 .069992069 .5411835 .069992069 .34228517 .069992069 .13938904 .24598694-.01953125 .45298768-.01953125 .6299896-.01953125 .74398806 .1124115 .74398806 .23434448 .74398806 .24534607 .7429962 .25334168 .72698977 .25334168 .72099307 .25334168 .71099856 .25334168 .70999148 .24034119 .70199587 .079422 .56599429 .016464234 .46699525 .016464234 .3600006 .016464234 .1769867 .0814209 .1769867 .34129334 .1769867 .61213687 .37098695 .66711428 .46499635 .66711428 .56399539 .66711428 .6819916 .6011505 .70799258 .429245 .70999148 .4172516 .71899417 .4172516 .7259979 .4172516 .74398806 .4172516 .74398806 .4232483 .74398806 .4432373V.677124Z"/>
<path id="font_1_9" d="M.43998719 .22851563C.46099855 .22851563 .46798707 .22851563 .46798707 .25050355 .46798707 .33839417 .4189911 .44628907 .269989 .44628907 .13899231 .44628907 .038986207 .34239198 .038986207 .21949768 .038986207 .092315677 .1499939-.009765625 .2829895-.009765625 .41799928-.009765625 .46798707 .09832764 .46798707 .12036133 .46798707 .12435913 .46598817 .13438416 .45098878 .13438416 .43798829 .13438416 .43598939 .12837219 .43299867 .11836243 .4019928 .037246705 .32598878 .022232056 .2899933 .022232056 .24299622 .022232056 .19799805 .043258668 .16799927 .08131409 .1309967 .12837219 .12998963 .18945313 .12998963 .22851563H.43998719M.1309967 .25450135C.14199829 .39530946 .23199463 .41827394 .269989 .41827394 .3929901 .41827394 .39698792 .27947999 .397995 .25450135H.1309967Z"/>
<path id="font_1_13" d="M.5149994 .3032837C.5149994 .3903656 .47200013 .44140626 .36499024 .44140626 .2829895 .44140626 .22999573 .39637757 .20199585 .34432984H.20098877V.44140626L.053985597 .43040467V.39437867C.12098694 .39437867 .1289978 .38737489 .1289978 .33831788V.07904053C.1289978 .035995485 .11898804 .035995485 .053985597 .035995485V0C.055999757 0 .12599182 .0039978029 .16799927 .0039978029 .20498657 .0039978029 .27398683 .0009918213 .2829895 0V.035995485C.21798706 .035995485 .20799256 .035995485 .20799256 .07904053V.25923158C.20799256 .36434938 .29100038 .4133911 .35699464 .4133911 .4269867 .4133911 .43598939 .3583374 .43598939 .3072815V.07904053C.43598939 .035995485 .42599488 .035995485 .36099244 .035995485V0C.36299134 0 .43299867 .0039978029 .47499085 .0039978029 .5119934 .0039978029 .58099368 .0009918213 .58999636 0V.035995485C.5249939 .035995485 .5149994 .035995485 .5149994 .07904053V.3032837Z"/>
<path id="font_1_17" d="M.20098877 .39465333H.35699464V.43066407H.20098877V.6147156H.16699219C.1659851 .5246887 .125 .42565919 .0289917 .4226532V.39465333H.12199402V.1250763C.12199402 .01322937 .20599365-.009765625 .2619934-.009765625 .32899476-.009765625 .375 .047195436 .375 .12606812V.1809845H.34098817V.12705994C.34098817 .059173585 .30899049 .022232056 .269989 .022232056 .20098877 .022232056 .20098877 .10609436 .20098877 .124069217V.39465333Z"/>
<path id="font_1_15" d="M.19898987 .22819519C.19898987 .31228639 .23799134 .4133911 .33299256 .4133911 .32398988 .40638734 .31599427 .39337159 .31599427 .3773651 .31599427 .34432984 .34199525 .3313141 .36099244 .3313141 .3849945 .3313141 .40699769 .34732057 .40699769 .3773651 .40699769 .4113922 .375 .44140626 .32798768 .44140626 .27799989 .44140626 .22299195 .4104004 .19299317 .33432008H.19198609V.44140626L.04899597 .43040467V.39437867C.115997318 .39437867 .12399292 .38737489 .12399292 .33831788V.07904053C.12399292 .035995485 .11399841 .035995485 .04899597 .035995485V0C.053985597 0 .12199402 .0039978029 .16299439 .0039978029 .20599365 .0039978029 .25 .0019989014 .29299928 0V.035995485H.272995C.19898987 .035995485 .19898987 .04699707 .19898987 .08103943V.22819519Z"/>
<path id="font_1_18" d="M.44099427 .3956604C.44799806 .4046631 .44999696 .4076538 .44999696 .4146576 .44999696 .43066407 .43798829 .43066407 .42199708 .43066407H.06599426L.053985597 .2637787H.08799744C.09498596 .36868287 .117996219 .40264894 .23199463 .40264894H.34999085L.04798889 .037994386C.038986207 .026992798 .038986207 .022994996 .038986207 .017990113 .038986207 0 .04899597 0 .066986087 0H.43499757L.45298768 .19384766H.4189911C.40899659 .07695007 .3880005 .03199768 .2630005 .03199768H.13999939L.44099427 .3956604Z"/>
<path id="font_1_14" d="M.5289917 .21325684C.5289917 .3382721 .42199708 .44628907 .28399659 .44628907 .1459961 .44628907 .038986207 .3382721 .038986207 .21325684 .038986207 .0892334 .14898682-.009765625 .28399659-.009765625 .4189911-.009765625 .5289917 .0892334 .5289917 .21325684M.28399659 .022232056C.24699402 .022232056 .19299317 .034225465 .1599884 .083236698 .1329956 .12423706 .12998963 .17625427 .12998963 .22225952 .12998963 .2652588 .1309967 .32426454 .1659851 .36727906 .19099427 .39627076 .23298645 .41827394 .28399659 .41827394 .34298707 .41827394 .3849945 .39027406 .40699769 .3592682 .43499757 .32026673 .43798829 .27026368 .43798829 .22225952 .43798829 .17424011 .43499757 .12124634 .4059906 .08023071 .3789978 .042236329 .33299256 .022232056 .28399659 .022232056Z"/>
<path id="font_3_3" d="M.16799927 .08824158C.19400025 .11425781 .21199036 .13327027 .29699708 .2013092 .31799317 .2183075 .3929901 .27835084 .42199708 .30636598 .48298646 .36639405 .5209961 .41740418 .5209961 .42939759 .5209961 .44140626 .5079956 .44140626 .5039978 .44140626 .49499513 .44140626 .49198915 .4393921 .4869995 .43139649 .45599366 .38539125 .43499757 .37039186 .41099549 .37039186 .39898683 .37039186 .38398744 .37139894 .35398866 .40040589 .31999208 .43440248 .2979889 .44140626 .2749939 .44140626 .19499207 .44140626 .14099121 .35440064 .14099121 .32437135 .14099121 .31536866 .15098572 .31236268 .1579895 .31236268 .16999817 .31236268 .17199707 .31536866 .17599488 .3263855 .19099427 .36140443 .24699402 .36340333 .2630005 .36340333 .28599549 .36340333 .31199647 .35739137 .32598878 .35440064 .3809967 .34239198 .3880005 .34239198 .41299439 .34239198 .3869934 .31536866 .36898805 .29736329 .27398683 .22131348 .19599915 .1592865 .16899109 .13426209 .1499939 .11425781 .08999634 .055221559 .06098938 .011230469 .06098938 .0022277833 .06098938-.009765625 .07398987-.009765625 .07798767-.009765625 .08799744-.009765625 .08999634-.0077667238 .09498596 .00022888184 .12199402 .038223268 .15299988 .06123352 .18699646 .06123352 .19898987 .06123352 .21398926 .06022644 .24099732 .035232545 .27198792 .0052337648 .2919922-.009765625 .32398988-.009765625 .43099977-.009765625 .49798585 .11125183 .49798585 .14527893 .49798585 .15727234 .4869995 .15827942 .48098756 .15827942 .46899415 .15827942 .46699525 .15327454 .46299745 .14227295 .44400025 .09223938 .3849945 .068222049 .33599855 .068222049 .31298829 .068222049 .28799439 .07322693 .2630005 .07923889 .21699524 .0892334 .20899964 .0892334 .19099427 .0892334 .18899536 .0892334 .17399597 .0892334 .16799927 .08824158Z"/>
<clipPath id="clip_16">
<path transform="matrix(1,0,0,-1,37.657,99.75201)" d="M88.44188 29.4818V38.55293H97.51302V29.4818ZM97.51302 38.55293"/>
</clipPath>
<g id="pattern_tile_17">
<path transform="matrix(1,0,0,-1,0,154.13)" d="M.49814 0C.49814 .2751 .2751 .49814 0 .49814-.2751 .49814-.49814 .2751-.49814 0-.49814-.2751-.2751-.49814 0-.49814 .2751-.49814 .49814-.2751 .49814 0ZM0 0" fill="#ffcc99"/>
</g>
<pattern id="pattern_17" patternUnits="userSpaceOnUse" patternContentUnits="userSpaceOnUse" x="0" y="0" width="2.98883" height="2.98883">
<g transform="matrix(1,0,0,-1,-0,154.13)">
<use x="0" y="0" xlink:href="#pattern_tile_17"/>
</g>
</pattern>
<path id="font_1_5" d="M.057998659 .6826172V.64660647H.08198547C.15899658 .64660647 .16099549 .63661196 .16099549 .6016388V.080963138C.16099549 .04698181 .15899658 .035995485 .08198547 .035995485H.057998659V0H.45199586C.6359863 0 .78900149 .1479187 .78900149 .33580018 .78900149 .52568057 .6380005 .6826172 .45199586 .6826172H.057998659M.2999878 .035995485C.25299073 .035995485 .2519989 .04399109 .2519989 .07496643V.6076355C.2519989 .63861086 .25299073 .64660647 .2999878 .64660647H.42399598C.5089874 .64660647 .58299258 .6116333 .6289978 .55267336 .66999819 .498703 .6859894 .42274476 .6859894 .33580018 .6859894 .21987915 .6569977 .15991211 .621994 .11793518 .57699587 .066970828 .5049896 .035995485 .4249878 .035995485H.2999878Z"/>
<path id="font_1_11" d="M.21099854 .6168213C.21099854 .645813 .18699646 .6738281 .15299988 .6738281 .12298584 .6738281 .09599304 .64982607 .09599304 .6168213 .09599304 .5808258 .125 .55882266 .15299988 .55882266 .18499756 .55882266 .21099854 .5838165 .21099854 .6168213M.05899048 .43040467V.39439393C.12199402 .39439393 .1309967 .38839723 .1309967 .3393402V.07904053C.1309967 .035995485 .12098694 .035995485 .055999757 .035995485V0C.057998659 0 .12799073 .0039978029 .16799927 .0039978029 .20298767 .0039978029 .23899842 .0029907227 .27398683 0V.035995485C.21598816 .035995485 .20599365 .035995485 .20599365 .07803345V.44140626L.05899048 .43040467Z"/>
<path id="font_1_7" d="M.44599916 .26823426C.44599916 .32154847 .44599916 .35954286 .3999939 .3965149 .35899354 .4302826 .31098939 .44628907 .2519989 .44628907 .15699768 .44628907 .08999634 .41036988 .08999634 .34954835 .08999634 .31755067 .11199951 .30055238 .13798523 .30055238 .16499329 .30055238 .18499756 .32054139 .18499756 .34754945 .18499756 .36454774 .1769867 .38554383 .1499939 .3935547 .18598938 .41827394 .24398804 .41827394 .25 .41827394 .30599977 .41827394 .36698915 .38154603 .36698915 .29751588V.2662201C.31199647 .2642212 .24598694 .26123048 .17298889 .23422241 .08299255 .20123291 .054992677 .14622498 .054992677 .10122681 .054992677 .0152282719 .15899658-.009765625 .22999573-.009765625 .30999757-.009765625 .35699464 .035232545 .37799073 .07423401 .38198854 .033233644 .40899659-.004776001 .45498658-.004776001 .45700074-.004776001 .55400088-.004776001 .55400088 .09022522V.14523316H.519989V.0912323C.519989 .081222537 .519989 .033233644 .48298646 .033233644 .44599916 .033233644 .44599916 .08023071 .44599916 .0932312V.26823426M.36698915 .1412201C.36698915 .04522705 .2829895 .018234253 .23799134 .018234253 .18699646 .018234253 .13899231 .052230836 .13899231 .10122681 .13899231 .15621948 .18699646 .23323059 .36698915 .24023438V.1412201Z"/>
<path id="font_1_10" d="M.14399719 .17845154C.15899658 .16944885 .19499207 .14746094 .25299073 .14746094 .35598756 .14746094 .43099977 .21644593 .43099977 .29441834 .43099977 .3334198 .41299439 .3644104 .3889923 .39039613 .43399049 .4223938 .47299195 .42340089 .48999024 .42340089 .48599244 .41940309 .48098756 .41540528 .48098756 .3993988 .48098756 .3794098 .49598695 .36740113 .5130005 .36740113 .5269928 .36740113 .54499819 .3774109 .54499819 .40040589 .54499819 .42340089 .526001 .45140077 .48599244 .45140077 .47099305 .45140077 .4169922 .44839479 .36999513 .4053955 .33999635 .42739869 .2979889 .44140626 .2539978 .44140626 .15098572 .44140626 .07598877 .372406 .07598877 .29441834 .07598877 .25543214 .09599304 .21943665 .12399292 .19345093 .115997318 .18444824 .09399414 .15145874 .09399414 .112213138 .09399414 .099121097 .09700012 .05192566 .13598633 .022918702 .09098816 .0079193119 .038986207-.02508545 .038986207-.0770874 .038986207-.15008545 .14898682-.20507813 .28399659-.20507813 .41099549-.20507813 .5289917-.15509033 .5289917-.0750885 .5289917-.045074464 .5169983 .008926392 .46199037 .03892517 .40299989 .06991577 .34399415 .06991577 .24699402 .06991577 .22499085 .06991577 .18899536 .06991577 .18099976 .07092285 .14898682 .07797241 .1309967 .108184818 .1309967 .13739014 .1309967 .16246033 .13798523 .17045594 .14399719 .17845154M.2539978 .17745972C.1559906 .17745972 .1559906 .2734375 .1559906 .29441834 .1559906 .3104248 .1559906 .3504181 .17599488 .3764038 .18998719 .3934021 .21699524 .4113922 .25299073 .4113922 .35099793 .4113922 .35099793 .31541444 .35099793 .29441834 .35099793 .27842713 .35099793 .23843384 .33099366 .21244812 .31698609 .19544983 .2899933 .17745972 .2539978 .17745972M.2539978 .0029296876C.34298707 .0029296876 .46798707 .0029296876 .46798707-.07608032 .46798707-.12908936 .3889923-.17507935 .28399659-.17507935 .1789856-.17507935 .099990848-.12808228 .099990848-.07608032 .099990848-.04107666 .13198853 .0019226074 .19599915 .0029296876H.2539978Z"/>
<path id="font_1_12" d="M.20599365 .69433596 .055999757 .68333438V.6473236C.12298584 .6473236 .1309967 .6403198 .1309967 .59129336V.07901001C.1309967 .035995485 .12098694 .035995485 .055999757 .035995485V0C.057998659 0 .12799073 .0039978029 .16799927 .0039978029 .20599365 .0039978029 .24299622 .0029907227 .2809906 0V.035995485C.21598816 .035995485 .20599365 .035995485 .20599365 .07901001V.69433596Z"/>
<path id="font_1_16" d="M.3789978 .4202881C.3789978 .43728639 .3789978 .44628907 .36499024 .44628907 .3600006 .44628907 .35798646 .44628907 .34498597 .4342804 .34298707 .43328858 .33299256 .4242859 .32699586 .419281 .29699708 .4402771 .25898744 .44628907 .22200012 .44628907 .07899475 .44628907 .04499817 .37127687 .04499817 .3212738 .04499817 .28926087 .05899048 .2632599 .08299255 .24325562 .12098694 .21025086 .15899658 .20324707 .22099304 .19325257 .2709961 .18424988 .35198976 .17024231 .35198976 .10324097 .35198976 .0642395 .32499696 .018234253 .22898865 .018234253 .1329956 .018234253 .09799194 .08123779 .07998657 .14924622 .07699585 .1622467 .07598877 .1662445 .06199646 .1662445 .04499817 .1662445 .04499817 .15924073 .04499817 .13923645V.016220093C.04499817-.00077819827 .04499817-.009765625 .05899048-.009765625 .067993167-.009765625 .08699036 .011230469 .10699463 .033233644 .15098572-.0077667238 .20498657-.009765625 .22898865-.009765625 .35899354-.009765625 .40699769 .06022644 .40699769 .13124085 .40699769 .16925049 .3899994 .19924927 .3639984 .22325135 .32598878 .258255 .27999879 .26626588 .24499512 .27226258 .16499329 .28627015 .099990848 .29826356 .099990848 .35127259 .099990848 .38327027 .1269989 .422287 .22200012 .422287 .33799745 .422287 .34298707 .34127809 .34498597 .31227113 .34599305 .30126954 .35798646 .30126954 .3619995 .30126954 .3789978 .30126954 .3789978 .30827333 .3789978 .3272705V.4202881Z"/>
<path id="font_1_6" d="M.5019989 .34111024C.59199526 .36210633 .6819916 .42100526 .6819916 .5018616 .6819916 .6016846 .5499878 .6826172 .394989 .6826172H.057998659V.64660647H.08198547C.15899658 .64660647 .16099549 .6366272 .16099549 .6016846V.08100891C.16099549 .04699707 .15899658 .035995485 .08198547 .035995485H.057998659V0C.05899048 0 .16499329 .0039978029 .20599365 .0039978029 .24798584 .0039978029 .30499269 .0019989014 .35499574 0V.035995485H.33099366C.2539978 .035995485 .2519989 .04598999 .2519989 .08100891V.328125H.3849945C.40299989 .328125 .45498658 .328125 .49899293 .28715516 .5339966 .25619508 .5339966 .23121643 .5339966 .16429138 .5339966 .099365238 .5339966 .058410646 .5799866 .020446778 .6230011-.014541626 .6819916-.01953125 .70999148-.01953125 .79499819-.01953125 .81700137 .061401369 .81700137 .09136963 .81700137 .098358158 .81700137 .11035156 .7999878 .11035156 .7849884 .11035156 .7839966 .101364139 .7829895 .09136963 .7779999 .033432008 .7449951 .008468628 .71398928 .008468628 .6569977 .008468628 .6489868 .06739807 .6369934 .15829468 .6259918 .23822022 .6230011 .25419618 .59399417 .28715516 .58399966 .29811097 .55599978 .32411195 .5019989 .34111024M.38198854 .35612489H.2519989V.6076813C.2519989 .6356354 .25299073 .6426239 .2789917 .6456146 .2869873 .64660647 .32099916 .64660647 .34199525 .64660647 .43798829 .64660647 .57499697 .64660647 .57499697 .5018616 .57499697 .39006043 .48799134 .35612489 .38198854 .35612489Z"/>
<path id="font_1_8" d="M.19898987 .69433596 .04899597 .68333438V.6473236C.116989139 .6473236 .12399292 .639328 .12399292 .58935549V.00022888184H.1579895L.19299317 .06124878C.23098755 .011230469 .28599549-.009765625 .33898927-.009765625 .47099305-.009765625 .58399966 .089263919 .58399966 .2163086 .58399966 .33836366 .48098756 .44140626 .34999085 .44140626 .2899933 .44140626 .23498535 .41740418 .19898987 .38137818V.69433596M.20298767 .33535768C.23098755 .38137818 .2849884 .4133911 .34498597 .4133911 .40098573 .4133911 .44099427 .38137818 .46099855 .35136415 .48098756 .32235719 .49299623 .28334046 .49299623 .21731568 .49299623 .19430542 .49299623 .119277957 .45199586 .072250369 .4119873 .027236939 .36299134 .018234253 .33399964 .018234253 .2539978 .018234253 .21398926 .08125305 .20298767 .102264408V.33535768Z"/>
</defs>
<path transform="matrix(1,0,0,-1,37.657,99.75201)" stroke-width=".3985" stroke-linecap="round" stroke-linejoin="round" fill="none" stroke="#b2b3b2" d="M0 0H81.24043"/>
<path transform="matrix(1,0,0,-1,119.09668,99.75201)" stroke-width=".3985" stroke-linecap="round" stroke-linejoin="round" fill="none" stroke="#b2b3b2" d="M-2.07224 2.39104C-1.69365 .95639-.84999 .27895 0 0-.84999-.27895-1.69365-.95639-2.07224-2.39104"/>
<use data-text="0" xlink:href="#font_1_2" transform="matrix(6.9738,0,0,-6.9738,122.813999,108.735)" fill="#b2b3b2"/>
<use data-text="&#x25e6;" xlink:href="#font_2_1" transform="matrix(4.9813,0,0,-4.9813,126.784999,105.728008)" fill="#b2b3b2"/>
<path transform="matrix(1,0,0,-1,37.657,99.75201)" stroke-width=".3985" stroke-linecap="round" stroke-linejoin="round" fill="none" stroke="#b2b3b2" d="M0 0V81.24043"/>
<path transform="matrix(0,-1,-1,-0,37.657,18.312325)" stroke-width=".3985" stroke-linecap="round" stroke-linejoin="round" fill="none" stroke="#b2b3b2" d="M-2.07224 2.39104C-1.69365 .95639-.84999 .27895 0 0-.84999-.27895-1.69365-.95639-2.07224-2.39104"/>
<use data-text="+" xlink:href="#font_1_1" transform="matrix(6.9738,0,0,-6.9738,15.914001,13.764008)" fill="#b2b3b2"/>
<use data-text="9" xlink:href="#font_1_3" transform="matrix(6.9738,0,0,-6.9738,22.030024,13.764008)" fill="#b2b3b2"/>
<use data-text="0" xlink:href="#font_1_2" transform="matrix(6.9738,0,0,-6.9738,26.00509,13.764008)" fill="#b2b3b2"/>
<use data-text="&#x25e6;" xlink:href="#font_2_1" transform="matrix(4.9813,0,0,-4.9813,29.973002,10.758011)" fill="#b2b3b2"/>
<path transform="matrix(1,0,0,-1,37.657,99.75201)" stroke-width=".3985" stroke-linecap="round" stroke-linejoin="round" fill="none" stroke="#000000" d="M70.30124 0C70.30124 6.14125 69.49454 12.2643 68.00894 17.81041"/>
<path transform="matrix(-.25871,-.96593,-.96593,.25871,105.61441,81.74917)" stroke-width=".3985" stroke-linecap="round" stroke-linejoin="round" fill="none" stroke="#000000" d="M-2.07224 2.39104C-1.69365 .95639-.84999 .27895 0 0-.84999-.27895-1.69365-.95639-2.07224-2.39104"/>
<use data-text="&#x03c6;" xlink:href="#font_3_1" transform="matrix(6.9738,0,0,-6.9738,110.87401,91.401)"/>
<use data-text="1" xlink:href="#font_4_1" transform="matrix(4.9813,0,0,-4.9813,116.114009,92.397)"/>
<path transform="matrix(1,0,0,-1,37.657,99.75201)" stroke-width=".3985" stroke-linecap="round" stroke-linejoin="round" fill="none" stroke="#000000" d="M56.95134 15.25992C52.90546 30.36116 43.0188 43.24466 29.82452 50.8628"/>
<path transform="matrix(-.86601,-.5,-.5,.86601,67.30898,48.789609)" stroke-width=".3985" stroke-linecap="round" stroke-linejoin="round" fill="none" stroke="#000000" d="M-2.07224 2.39104C-1.69365 .95639-.84999 .27895 0 0-.84999-.27895-1.69365-.95639-2.07224-2.39104"/>
<use data-text="&#x03c6;" xlink:href="#font_3_1" transform="matrix(6.9738,0,0,-6.9738,87.951007,65.342)"/>
<use data-text="2" xlink:href="#font_4_2" transform="matrix(4.9813,0,0,-4.9813,93.191,66.338008)"/>
<use data-text="&#x2212;" xlink:href="#font_5_1" transform="matrix(6.9738,0,0,-6.9738,98.893009,65.342)"/>
<use data-text="&#x03c6;" xlink:href="#font_3_1" transform="matrix(6.9738,0,0,-6.9738,106.93379,65.342)"/>
<use data-text="1" xlink:href="#font_4_1" transform="matrix(4.9813,0,0,-4.9813,112.174,66.338008)"/>
<path transform="matrix(1,0,0,-1,37.657,99.75201)" stroke-width=".59776" stroke-linecap="round" stroke-linejoin="round" fill="none" stroke="#ff4d4d" d="M0 0 14.17334 24.54906C.61548 32.37668-16.72148 27.73123-24.5491 14.17336-32.37672 .6155-27.73128-16.72147-14.1734-24.54909-5.40416-29.61192 5.4041-29.61192 14.17334-24.54909Z"/>
<g clip-path="url(#clip_6)">
<rect transform="matrix(1,0,0,-1,0,154.13)" fill="url(#pattern_7)" x="37.35812" y="54.079118" width="55.358755" height="49.695955"/>
</g>
<path transform="matrix(1,0,0,-1,37.657,99.75201)" stroke-width=".59776" stroke-linecap="round" stroke-linejoin="round" fill="none" stroke="#ff9933" d="M0 0 54.76099 14.67337C50.87076 29.19366 41.36443 41.58156 28.3459 49.09819Z"/>
<g clip-path="url(#clip_8)">
<rect transform="matrix(1,0,0,-1,0,154.13)" fill="url(#pattern_9)" x="37.35812" y="4.980942" width="55.358755" height="49.69594"/>
</g>
<path transform="matrix(1,0,0,-1,37.657,99.75201)" stroke-width=".59776" stroke-linecap="round" stroke-linejoin="round" fill="none" stroke="#ff9933" d="M0 0 54.76099-14.67337C50.87076-29.19366 41.36443-41.58156 28.3459-49.09819Z"/>
<g clip-path="url(#clip_10)">
<rect transform="matrix(1,0,0,-1,0,154.13)" fill="url(#pattern_11)" x="37.35812" y="36.471406" width="69.401767" height="35.814287"/>
</g>
<path transform="matrix(1,0,0,-1,37.657,99.75201)" stroke-width=".59776" stroke-linecap="round" stroke-linejoin="round" fill="none" stroke="#4d4dff" d="M0 0 65.71461-17.60771C68.804-6.07547 68.804 6.07655 65.71461 17.60881Z"/>
<path transform="matrix(1,0,0,-1,37.657,99.75201)" stroke-width=".3985" stroke-linecap="round" stroke-linejoin="round" fill="none" stroke="#000000" d="M0 0H67.63448"/>
<path transform="matrix(1,0,0,-1,105.49072,99.75201)" stroke-width=".3985" stroke-linecap="round" stroke-linejoin="round" fill="none" stroke="#000000" d="M-2.07224 2.39104C-1.69365 .95639-.84999 .27895 0 0-.84999-.27895-1.69365-.95639-2.07224-2.39104"/>
<use data-text="d" xlink:href="#font_3_2" transform="matrix(6.9738,0,0,-6.9738,75.192,95.23601)"/>
<use data-text="1" xlink:href="#font_4_1" transform="matrix(4.9813,0,0,-4.9813,79.340007,96.232)"/>
<path transform="matrix(1,0,0,-1,37.657,99.75201)" stroke-width=".3985" stroke-linecap="round" stroke-linejoin="round" fill="none" stroke="#000000" d="M0 0 51.02086 23.7907"/>
<path transform="matrix(.9063,-.4226,-.4226,-.9063,88.85843,75.877109)" stroke-width=".3985" stroke-linecap="round" stroke-linejoin="round" fill="none" stroke="#000000" d="M-2.07224 2.39104C-1.69365 .95639-.84999 .27895 0 0-.84999-.27895-1.69365-.95639-2.07224-2.39104"/>
<use data-text="d" xlink:href="#font_3_2" transform="matrix(6.9738,0,0,-6.9738,59.329004,83.257)"/>
<use data-text="2" xlink:href="#font_4_2" transform="matrix(4.9813,0,0,-4.9813,63.477,84.253009)"/>
<path transform="matrix(1,0,0,-1,37.657,99.75201)" stroke-width=".3985" stroke-linecap="round" stroke-linejoin="round" fill="none" stroke="#000000" d="M0 0-13.9741-24.20396"/>
<path transform="matrix(-.49998,.86601,.86601,.49998,23.583271,124.12851)" stroke-width=".3985" stroke-linecap="round" stroke-linejoin="round" fill="none" stroke="#000000" d="M-2.07224 2.39104C-1.69365 .95639-.84999 .27895 0 0-.84999-.27895-1.69365-.95639-2.07224-2.39104"/>
<use data-text="d" xlink:href="#font_3_2" transform="matrix(6.9738,0,0,-6.9738,11.929001,132.664)"/>
<use data-text="3" xlink:href="#font_4_3" transform="matrix(4.9813,0,0,-4.9813,16.076,133.66)"/>
<path transform="matrix(1,0,0,-1,37.657,99.75201)" d="M19.84308 0C19.84308 10.95915 10.95915 19.84308 0 19.84308-10.95915 19.84308-19.84308 10.95915-19.84308 0-19.84308-10.95915-10.95915-19.84308 0-19.84308 10.95915-19.84308 19.84308-10.95915 19.84308 0ZM0 0" fill="#cccccc" fill-opacity=".5"/>
<path transform="matrix(1,0,0,-1,37.657,99.75201)" stroke-width=".59776" stroke-linecap="round" stroke-dasharray="2.98883,2.98883" stroke-linejoin="round" fill="none" stroke="#333333" d="M19.84308 0C19.84308 10.95915 10.95915 19.84308 0 19.84308-10.95915 19.84308-19.84308 10.95915-19.84308 0-19.84308-10.95915-10.95915-19.84308 0-19.84308 10.95915-19.84308 19.84308-10.95915 19.84308 0ZM0 0"/>
<g clip-path="url(#clip_13)">
<rect transform="matrix(1,0,0,-1,0,154.13)" fill="url(#pattern_14)" x="125.799999" y="97.16675" width="9.668907" height="9.6689"/>
</g>
<path transform="matrix(1,0,0,-1,37.657,99.75201)" stroke-width=".59776" stroke-linecap="round" stroke-linejoin="round" fill="none" stroke="#4d4dff" d="M88.44188 43.08763V52.15877H97.51302V43.08763ZM97.51302 52.15877"/>
<use data-text="C" xlink:href="#font_1_4" transform="matrix(6.9738,0,0,-6.9738,140.95601,54.015008)"/>
<use data-text="e" xlink:href="#font_1_9" transform="matrix(6.9738,0,0,-6.9738,146.64664,54.015008)"/>
<use data-text="n" xlink:href="#font_1_13" transform="matrix(6.9738,0,0,-6.9738,150.18933,54.015008)"/>
<use data-text="t" xlink:href="#font_1_17" transform="matrix(6.9738,0,0,-6.9738,154.37361,54.015008)"/>
<use data-text="e" xlink:href="#font_1_9" transform="matrix(6.9738,0,0,-6.9738,157.48394,54.015008)"/>
<use data-text="r" xlink:href="#font_1_15" transform="matrix(6.9738,0,0,-6.9738,161.02663,54.015008)"/>
<use data-text="z" xlink:href="#font_1_18" transform="matrix(6.9738,0,0,-6.9738,166.82186,54.015008)"/>
<use data-text="o" xlink:href="#font_1_14" transform="matrix(6.9738,0,0,-6.9738,170.36455,54.015008)"/>
<use data-text="n" xlink:href="#font_1_13" transform="matrix(6.9738,0,0,-6.9738,174.33962,54.015008)"/>
<use data-text="e" xlink:href="#font_1_9" transform="matrix(6.9738,0,0,-6.9738,178.74008,54.015008)"/>
<use data-text="z" xlink:href="#font_3_3" transform="matrix(6.9738,0,0,-6.9738,184.96768,54.015008)"/>
<use data-text="1" xlink:href="#font_4_1" transform="matrix(4.9813,0,0,-4.9813,188.77101,55.01101)"/>
<g clip-path="url(#clip_16)">
<rect transform="matrix(1,0,0,-1,0,154.13)" fill="url(#pattern_17)" x="125.799999" y="83.56092" width="9.668907" height="9.668892"/>
</g>
<path transform="matrix(1,0,0,-1,37.657,99.75201)" stroke-width=".59776" stroke-linecap="round" stroke-linejoin="round" fill="none" stroke="#ff9933" d="M88.44188 29.4818V38.55293H97.51302V29.4818ZM97.51302 38.55293"/>
<use data-text="D" xlink:href="#font_1_5" transform="matrix(6.9738,0,0,-6.9738,140.957,67.48)"/>
<use data-text="i" xlink:href="#font_1_11" transform="matrix(6.9738,0,0,-6.9738,146.95447,67.48)"/>
<use data-text="a" xlink:href="#font_1_7" transform="matrix(6.9738,0,0,-6.9738,149.207,67.48)"/>
<use data-text="g" xlink:href="#font_1_10" transform="matrix(6.9738,0,0,-6.9738,153.18207,67.48)"/>
<use data-text="o" xlink:href="#font_1_14" transform="matrix(6.9738,0,0,-6.9738,157.15714,67.48)"/>
<use data-text="n" xlink:href="#font_1_13" transform="matrix(6.9738,0,0,-6.9738,161.1322,67.48)"/>
<use data-text="a" xlink:href="#font_1_7" transform="matrix(6.9738,0,0,-6.9738,165.53267,67.48)"/>
<use data-text="l" xlink:href="#font_1_12" transform="matrix(6.9738,0,0,-6.9738,169.50774,67.48)"/>
<use data-text="z" xlink:href="#font_1_18" transform="matrix(6.9738,0,0,-6.9738,174.44518,67.48)"/>
<use data-text="o" xlink:href="#font_1_14" transform="matrix(6.9738,0,0,-6.9738,177.98787,67.48)"/>
<use data-text="n" xlink:href="#font_1_13" transform="matrix(6.9738,0,0,-6.9738,181.96294,67.48)"/>
<use data-text="e" xlink:href="#font_1_9" transform="matrix(6.9738,0,0,-6.9738,186.3634,67.48)"/>
<use data-text="z" xlink:href="#font_3_3" transform="matrix(6.9738,0,0,-6.9738,192.591,67.48)"/>
<use data-text="2" xlink:href="#font_4_2" transform="matrix(4.9813,0,0,-4.9813,196.383,68.476009)"/>
<path transform="matrix(1,0,0,-1,37.657,99.75201)" stroke-width=".59776" stroke-linecap="round" stroke-linejoin="round" fill="none" stroke="#ff4d4d" d="M88.44188 15.87415V24.94528H97.51302V15.87415ZM97.51302 24.94528"/>
<use data-text="C" xlink:href="#font_1_4" transform="matrix(6.9738,0,0,-6.9738,140.957,81.26501)"/>
<use data-text="l" xlink:href="#font_1_12" transform="matrix(6.9738,0,0,-6.9738,146.64763,81.26501)"/>
<use data-text="o" xlink:href="#font_1_14" transform="matrix(6.9738,0,0,-6.9738,148.90016,81.26501)"/>
<use data-text="s" xlink:href="#font_1_16" transform="matrix(6.9738,0,0,-6.9738,152.87523,81.26501)"/>
<use data-text="e" xlink:href="#font_1_9" transform="matrix(6.9738,0,0,-6.9738,156.03437,81.26501)"/>
<use data-text="z" xlink:href="#font_1_18" transform="matrix(6.9738,0,0,-6.9738,162.26197,81.26501)"/>
<use data-text="o" xlink:href="#font_1_14" transform="matrix(6.9738,0,0,-6.9738,165.80466,81.26501)"/>
<use data-text="n" xlink:href="#font_1_13" transform="matrix(6.9738,0,0,-6.9738,169.77973,81.26501)"/>
<use data-text="e" xlink:href="#font_1_9" transform="matrix(6.9738,0,0,-6.9738,174.18019,81.26501)"/>
<use data-text="z" xlink:href="#font_3_3" transform="matrix(6.9738,0,0,-6.9738,180.40779,81.26501)"/>
<use data-text="3" xlink:href="#font_4_3" transform="matrix(4.9813,0,0,-4.9813,184.201,82.26101)"/>
<path transform="matrix(1,0,0,-1,37.657,99.75201)" d="M88.44188 56.69359V65.76472H97.51302V56.69359ZM97.51302 65.76472" fill="#cccccc" fill-opacity=".5"/>
<path transform="matrix(1,0,0,-1,37.657,99.75201)" stroke-width=".59776" stroke-linecap="round" stroke-dasharray="2.98883,2.98883" stroke-linejoin="round" fill="none" stroke="#333333" d="M88.44188 56.69359V65.76472H97.51302V56.69359ZM97.51302 65.76472"/>
<use data-text="R" xlink:href="#font_1_6" transform="matrix(6.9738,0,0,-6.9738,140.957,40.944009)"/>
<use data-text="o" xlink:href="#font_1_14" transform="matrix(6.9738,0,0,-6.9738,146.73828,40.944009)"/>
<use data-text="b" xlink:href="#font_1_8" transform="matrix(6.9738,0,0,-6.9738,150.71335,40.944009)"/>
<use data-text="o" xlink:href="#font_1_14" transform="matrix(6.9738,0,0,-6.9738,155.33,40.944009)"/>
<use data-text="t" xlink:href="#font_1_17" transform="matrix(6.9738,0,0,-6.9738,159.30507,40.944009)"/>
</svg>
